<svg width="13" height="13" viewBox="0 0 13 13" fill="none" xmlns="http://www.w3.org/2000/svg">
<path d="M7.81341 3.10646C8.32777 3.20682 8.80049 3.45838 9.17106 3.82894C9.54162 4.19951 9.79318 4.67223 9.89354 5.18659M7.81341 1C8.88206 1.11872 9.87858 1.59727 10.6394 2.35709C11.4001 3.11691 11.8799 4.11283 12 5.18132M11.4734 9.38371V10.9636C11.474 11.1102 11.4439 11.2554 11.3852 11.3898C11.3264 11.5242 11.2403 11.6448 11.1322 11.7439C11.0241 11.8431 10.8965 11.9186 10.7576 11.9656C10.6186 12.0125 10.4714 12.03 10.3254 12.0168C8.70488 11.8407 7.14829 11.287 5.78067 10.4001C4.50828 9.59155 3.42951 8.51278 2.62098 7.24039C1.73099 5.86656 1.17713 4.3024 1.00427 2.67464C0.991115 2.52901 1.00842 2.38224 1.05509 2.24367C1.10176 2.1051 1.17678 1.97776 1.27536 1.86977C1.37394 1.76178 1.49392 1.67549 1.62768 1.61641C1.76143 1.55734 1.90602 1.52675 2.05224 1.52662H3.63208C3.88765 1.5241 4.13542 1.6146 4.3292 1.78125C4.52298 1.9479 4.64955 2.17933 4.68531 2.43239C4.752 2.93798 4.87566 3.4344 5.05395 3.91218C5.1248 4.10067 5.14013 4.30552 5.09813 4.50245C5.05613 4.69939 4.95856 4.88016 4.81697 5.02334L4.14817 5.69214C4.89783 7.01055 5.98945 8.10217 7.30786 8.85183L7.97666 8.18303C8.11984 8.04144 8.30061 7.94387 8.49754 7.90187C8.69448 7.85987 8.89933 7.8752 9.08782 7.94605C9.5656 8.12434 10.062 8.248 10.5676 8.31469C10.8234 8.35077 11.057 8.47962 11.224 8.67673C11.3911 8.87384 11.4798 9.12545 11.4734 9.38371Z" stroke="white" stroke-width="1.05323" stroke-linecap="round" stroke-linejoin="round"/>
</svg>
